<svg xmlns="http://www.w3.org/2000/svg" xmlns:xlink="http://www.w3.org/1999/xlink" width="20" height="20" preserveAspectRatio="xMidYMid meet" viewBox="0 0 20 20" style="-ms-transform: rotate(360deg); -webkit-transform: rotate(360deg); transform: rotate(360deg);"><path d="M11.603 9.833L9.357 8.785C9.161 8.694 9 8.796 9 9.013v1.974c0 .217.161.319.357.228l2.245-1.048c.197-.092.197-.242.001-.334zM10 .4C4.698.4.4 4.698.4 10s4.298 9.6 9.6 9.6s9.6-4.298 9.6-9.6S15.302.4 10 .4zm0 13.5c-4.914 0-5-.443-5-3.9s.086-3.9 5-3.9s5 .443 5 3.9s-.086 3.9-5 3.9z" fill="white"/><rect x="0" y="0" width="20" height="20" fill="rgba(0, 0, 0, 0)" /></svg>